<svg xmlns="http://www.w3.org/2000/svg" version="1.1" xmlns:xlink="http://www.w3.org/1999/xlink" xmlns:svgjs="http://svgjs.dev/svgjs" width="1440" height="900" preserveAspectRatio="none" viewBox="0 0 1440 900"><g mask="url(&quot;#SvgjsMask2222&quot;)" fill="none"><rect width="1440" height="900" x="0" y="0" fill="url(&quot;#SvgjsLinearGradient2223&quot;)"></rect><path d="M1440 0L1099.79 0L1440 16.71z" fill="rgba(255, 255, 255, .1)"></path><path d="M1099.79 0L1440 16.71L1440 345.03999999999996L493.63 0z" fill="rgba(255, 255, 255, .075)"></path><path d="M493.6300000000001 0L1440 345.03999999999996L1440 346.45L317.8200000000001 0z" fill="rgba(255, 255, 255, .05)"></path><path d="M317.82000000000016 0L1440 346.45L1440 630.9L271.02000000000015 0z" fill="rgba(255, 255, 255, .025)"></path><path d="M0 900L251.98 900L0 823.11z" fill="rgba(0, 0, 0, .1)"></path><path d="M0 823.11L251.98 900L380.03 900L0 495.04z" fill="rgba(0, 0, 0, .075)"></path><path d="M0 495.04L380.03 900L738.5699999999999 900L0 263.13z" fill="rgba(0, 0, 0, .05)"></path><path d="M0 263.13L738.5699999999999 900L869.79 900L0 184.25z" fill="rgba(0, 0, 0, .025)"></path></g><defs><mask id="SvgjsMask2222"><rect width="1440" height="900" fill="#ffffff"></rect></mask><linearGradient x1="50%" y1="0%" x2="50%" y2="100%" gradientUnits="userSpaceOnUse" id="SvgjsLinearGradient2223"><stop stop-color="#0e2a47" offset="0"></stop><stop stop-color="rgba(0, 59, 148, 1)" offset="1"></stop></linearGradient></defs></svg>