<svg xmlns="http://www.w3.org/2000/svg" version="1.1" xmlns:xlink="http://www.w3.org/1999/xlink" xmlns:svgjs="http://svgjs.dev/svgjs" width="1440" height="700" preserveAspectRatio="none" viewBox="0 0 1440 700"><g mask="url(&quot;#SvgjsMask1756&quot;)" fill="none"><rect width="1440" height="700" x="0" y="0" fill="url(&quot;#SvgjsLinearGradient1757&quot;)"></rect><path d="M1440 0L1376.32 0L1440 49.03z" fill="rgba(255, 255, 255, .1)"></path><path d="M1376.32 0L1440 49.03L1440 61.2L825.28 0z" fill="rgba(255, 255, 255, .075)"></path><path d="M825.2800000000001 0L1440 61.2L1440 148.67000000000002L362.9800000000001 0z" fill="rgba(255, 255, 255, .05)"></path><path d="M362.98 0L1440 148.67000000000002L1440 320.66L124.71000000000001 0z" fill="rgba(255, 255, 255, .025)"></path><path d="M0 700L126.07 700L0 462.33000000000004z" fill="rgba(0, 0, 0, .1)"></path><path d="M0 462.33000000000004L126.07 700L478.48 700L0 271.05000000000007z" fill="rgba(0, 0, 0, .075)"></path><path d="M0 271.05L478.48 700L603.58 700L0 164.97000000000003z" fill="rgba(0, 0, 0, .05)"></path><path d="M0 164.97000000000003L603.58 700L957.22 700L0 134.19000000000003z" fill="rgba(0, 0, 0, .025)"></path></g><defs><mask id="SvgjsMask1756"><rect width="1440" height="700" fill="#ffffff"></rect></mask><linearGradient x1="12.85%" y1="-26.43%" x2="87.15%" y2="126.43%" gradientUnits="userSpaceOnUse" id="SvgjsLinearGradient1757"><stop stop-color="#0e2a47" offset="0"></stop><stop stop-color="rgba(0, 60, 150, 1)" offset="1"></stop></linearGradient></defs></svg>